<svg width="14" height="20" viewBox="0 0 14 20" fill="none" xmlns="http://www.w3.org/2000/svg">
<path d="M0 20L0.143296 18.2395L3.33675 14.8823C4.98806 13.1354 6.26407 11.7093 7.16479 10.6039C8.06551 9.49846 8.68645 8.55681 9.02764 7.77891C9.38246 7.00102 9.55988 6.22996 9.55988 5.46571C9.55988 4.31934 9.25964 3.4391 8.65916 2.82497C8.07233 2.21085 7.2262 1.90379 6.12078 1.90379C4.90618 1.90379 3.75981 2.29956 2.68168 3.0911L0.757421 6.32549C0.730126 5.47936 0.750597 4.66735 0.818833 3.88946C0.887069 3.11157 1.00307 2.41556 1.16684 1.80143C2.0812 1.2419 3.10474 0.805186 4.23746 0.4913C5.37018 0.163767 6.44831 0 7.47185 0C9.20505 0 10.5834 0.470829 11.607 1.41249C12.6441 2.3405 13.1627 3.58922 13.1627 5.15865C13.1627 6.10031 12.9307 7.06926 12.4667 8.06551C12.0027 9.04811 11.2112 10.2013 10.0921 11.5251C8.98669 12.8352 7.45138 14.4524 5.48618 16.3767L1.80143 20H0ZM0 20L2.43603 18.0348H13.3879V20H0ZM13.3879 20L10.522 18.7513L12.4258 14.7799H13.8588C13.9406 16.4313 13.7837 18.1713 13.3879 20ZM0.757421 6.32549L1.16684 2.4565L4.913 1.22825L2.43603 6.32549H0.757421Z" fill="#2895F0"/>
</svg>
