<svg width="14" height="20" viewBox="0 0 14 20" fill="none" xmlns="http://www.w3.org/2000/svg">
<path d="M6.28916 20C3.9015 20 1.94309 19.3427 0.413912 18.0282C0.252946 17.4245 0.138929 16.7404 0.0718597 15.9759C0.00479065 15.2113 -0.0153301 14.4131 0.0114976 13.5815L1.94309 16.7404C3.01619 17.6526 4.3844 18.1087 6.04771 18.1087C8.42196 18.1087 9.60908 16.9282 9.60908 14.5674C9.60908 13.3065 9.29386 12.3407 8.66341 11.67C8.03296 10.9859 7.12753 10.6439 5.94711 10.6439H4.5789L4.73987 8.63179L6.06784 8.75252C8.34818 8.75252 10.0987 9.222 11.3193 10.161C12.54 11.0865 13.1503 12.4145 13.1503 14.1449C13.1503 15.9423 12.5266 17.3709 11.2791 18.4306C10.045 19.4769 8.38172 20 6.28916 20ZM4.05576 18.6117L0.735844 17.7264L0.0114976 13.5815H1.62116L4.05576 18.6117ZM0.655361 6.09658L1.13826 2.31388L4.73987 1.08652L2.30526 6.09658H0.655361ZM5.6453 10.3018L4.73987 8.63179H5.76602C7.95248 8.63179 9.0457 7.55869 9.0457 5.41248C9.0457 4.2723 8.76401 3.4004 8.20063 2.79678C7.63725 2.17975 6.83242 1.87123 5.78615 1.87123C4.63256 1.87123 3.5058 2.26023 2.40586 3.03823L0.655361 6.09658C0.628533 5.26492 0.648654 4.4668 0.715723 3.70221C0.782792 2.93763 0.896809 2.25352 1.05778 1.6499C1.94309 1.15359 2.929 0.757881 4.01552 0.462777C5.11545 0.154259 6.14832 0 7.11411 0C8.7506 0 10.0517 0.442656 11.0175 1.32797C11.9833 2.19987 12.4662 3.37357 12.4662 4.84909C12.4662 6.51241 11.8492 7.84038 10.6151 8.833C9.38105 9.81221 7.72444 10.3018 5.6453 10.3018Z" fill="#2895F0"/>
</svg>
