<svg width="120" height="30" viewBox="0 0 120 30" fill="none" xmlns="http://www.w3.org/2000/svg">
<path fill-rule="evenodd" clip-rule="evenodd" d="M0 6.79558C8.17264 6.79558 20.2681 6.46409 30.2388 0L31.8733 2.1547C27.3454 5.1883 22.1376 7.00518 16.7247 8.06677C16.9509 8.54134 17.8666 10.4251 18.6531 11.5044C19.7428 10.8303 21.0232 10.442 22.393 10.442C26.365 10.442 29.5849 13.7071 29.5849 17.7348C29.5849 21.7625 26.365 25.0276 22.393 25.0276C18.421 25.0276 15.2011 21.7625 15.2011 17.7348C15.2011 16.1467 15.7017 14.6771 16.5517 13.4795C15.9214 12.806 15.2857 12.0309 15.2011 11.6022C14.8874 13.0867 13.7166 14.7408 12.8422 15.7677C13.1405 15.8657 13.4304 15.9829 13.7102 16.1179C13.6159 16.6423 13.5666 17.1827 13.5666 17.7348C13.5666 20.8039 15.09 23.5122 17.4118 25.1246C16.4283 27.9642 13.7608 30 10.6244 30C6.65244 30 3.43251 26.7349 3.43251 22.7072C3.43251 18.931 6.26281 15.8252 9.88965 15.452C12.6726 12.7393 13.5305 10.0758 13.636 8.59098C9.07927 9.25075 4.44262 9.44751 0 9.44751V6.79558ZM24.3715 13.8204C23.774 13.4228 23.1716 13.2597 22.8834 13.2597V12.2652C23.4124 12.2652 24.1994 12.5164 24.9095 12.989C25.632 13.4697 26.3402 14.2228 26.6255 15.2835L25.6794 15.5452C25.4743 14.7828 24.9567 14.2098 24.3715 13.8204ZM7.48376 19.4112C7.52313 19.3114 7.63949 19.1466 7.86487 18.9546C8.08198 18.7697 8.36898 18.5864 8.6987 18.4378C9.36691 18.1367 10.1411 18.0075 10.8104 18.2111L11.0922 17.2585C10.127 16.9649 9.10326 17.1672 8.3004 17.5291C7.89458 17.7119 7.52777 17.943 7.23408 18.1932C6.94868 18.4363 6.69727 18.7273 6.57319 19.0419L7.48376 19.4112Z" fill="#2895F0"/>
<path d="M49.2388 22.2868C47.2896 22.2868 45.6776 21.6432 44.4026 20.356C43.1277 19.0688 42.4902 17.4935 42.4902 15.6302C42.4902 13.7668 43.1277 12.1915 44.4026 10.9044C45.6776 9.61716 47.2896 8.97357 49.2388 8.97357C50.4279 8.97357 51.519 9.26166 52.5119 9.83783C53.5049 10.4017 54.2711 11.1679 54.8105 12.1364L53.6704 12.7984C53.2659 12.0138 52.6652 11.3886 51.8683 10.9227C51.0715 10.4569 50.195 10.224 49.2388 10.224C47.6329 10.224 46.3212 10.745 45.3037 11.787C44.2862 12.829 43.7774 14.1101 43.7774 15.6302C43.7774 17.1503 44.2862 18.4314 45.3037 19.4734C46.3212 20.5154 47.6329 21.0364 49.2388 21.0364C50.195 21.0364 51.0715 20.8035 51.8683 20.3376C52.6652 19.8718 53.2659 19.2466 53.6704 18.462L54.8105 19.1056C54.2834 20.0741 53.5172 20.8464 52.5119 21.4225C51.519 21.9987 50.4279 22.2868 49.2388 22.2868Z" fill="black"/>
<path d="M64.5607 12.8719H65.7743V22.0661H64.5607V20.2641C63.7148 21.6126 62.4766 22.2868 60.8462 22.2868C59.5345 22.2868 58.4128 21.821 57.4811 20.8893C56.5617 19.9576 56.102 18.8175 56.102 17.469C56.102 16.1205 56.5617 14.9805 57.4811 14.0488C58.4128 13.1171 59.5345 12.6513 60.8462 12.6513C62.4766 12.6513 63.7148 13.3255 64.5607 14.674V12.8719ZM58.3638 20.0618C59.0625 20.7606 59.9207 21.1099 60.9381 21.1099C61.9556 21.1099 62.8138 20.7606 63.5125 20.0618C64.2113 19.3508 64.5607 18.4865 64.5607 17.469C64.5607 16.4515 64.2113 15.5934 63.5125 14.8946C62.8138 14.1836 61.9556 13.8281 60.9381 13.8281C59.9207 13.8281 59.0625 14.1836 58.3638 14.8946C57.665 15.5934 57.3156 16.4515 57.3156 17.469C57.3156 18.4865 57.665 19.3508 58.3638 20.0618Z" fill="black"/>
<path d="M73.272 12.6513C74.5838 12.6513 75.6993 13.1171 76.6187 14.0488C77.5504 14.9805 78.0163 16.1205 78.0163 17.469C78.0163 18.8175 77.5504 19.9576 76.6187 20.8893C75.6993 21.821 74.5838 22.2868 73.272 22.2868C71.6416 22.2868 70.4034 21.6126 69.5576 20.2641V25.7438H68.3439V12.8719H69.5576V14.674C70.4034 13.3255 71.6416 12.6513 73.272 12.6513ZM70.6057 20.0618C71.3045 20.7606 72.1626 21.1099 73.1801 21.1099C74.1976 21.1099 75.0557 20.7606 75.7545 20.0618C76.4532 19.3508 76.8026 18.4865 76.8026 17.469C76.8026 16.4515 76.4532 15.5934 75.7545 14.8946C75.0557 14.1836 74.1976 13.8281 73.1801 13.8281C72.1626 13.8281 71.3045 14.1836 70.6057 14.8946C69.907 15.5934 69.5576 16.4515 69.5576 17.469C69.5576 18.4865 69.907 19.3508 70.6057 20.0618Z" fill="black"/>
<path d="M81.2663 10.6653C81.0946 10.8369 80.8862 10.9227 80.6411 10.9227C80.3959 10.9227 80.1875 10.8369 80.0159 10.6653C79.8442 10.4937 79.7584 10.2853 79.7584 10.0401C79.7584 9.79492 79.8442 9.58652 80.0159 9.41489C80.1875 9.24327 80.3959 9.15745 80.6411 9.15745C80.8862 9.15745 81.0946 9.24327 81.2663 9.41489C81.4379 9.58652 81.5237 9.79492 81.5237 10.0401C81.5237 10.2853 81.4379 10.4937 81.2663 10.6653ZM80.0342 22.0661V12.8719H81.2479V22.0661H80.0342Z" fill="black"/>
<path d="M88.6962 14.0488H86.0483V19.6205C86.0483 20.1231 86.1463 20.4847 86.3425 20.7054C86.5386 20.9138 86.8328 21.0241 87.2251 21.0364C87.6174 21.0364 88.1078 21.0241 88.6962 20.9996V22.0661C87.409 22.2623 86.4406 22.1703 85.7908 21.7903C85.1534 21.4103 84.8346 20.687 84.8346 19.6205V14.0488H82.9038V12.8719H84.8346V10.6653L86.0483 10.2975V12.8719H88.6962V14.0488Z" fill="black"/>
<path d="M98.0693 12.8719H99.2829V22.0661H98.0693V20.2641C97.2234 21.6126 95.9853 22.2868 94.3548 22.2868C93.0431 22.2868 91.9214 21.821 90.9897 20.8893C90.0703 19.9576 89.6106 18.8175 89.6106 17.469C89.6106 16.1205 90.0703 14.9805 90.9897 14.0488C91.9214 13.1171 93.0431 12.6513 94.3548 12.6513C95.9853 12.6513 97.2234 13.3255 98.0693 14.674V12.8719ZM91.8724 20.0618C92.5711 20.7606 93.4293 21.1099 94.4468 21.1099C95.4642 21.1099 96.3224 20.7606 97.0211 20.0618C97.7199 19.3508 98.0693 18.4865 98.0693 17.469C98.0693 16.4515 97.7199 15.5934 97.0211 14.8946C96.3224 14.1836 95.4642 13.8281 94.4468 13.8281C93.4293 13.8281 92.5711 14.1836 91.8724 14.8946C91.1736 15.5934 90.8242 16.4515 90.8242 17.469C90.8242 18.4865 91.1736 19.3508 91.8724 20.0618Z" fill="black"/>
<path d="M101.853 22.0661V8.64258H103.066V22.0661H101.853Z" fill="black"/>
<path d="M117.925 15.3911C119.053 16.0409 119.617 17.0216 119.617 18.3333C119.617 19.4243 119.231 20.3192 118.458 21.018C117.686 21.7168 116.736 22.0661 115.608 22.0661H110.147V9.19423H115.222C116.325 9.19423 117.251 9.53748 117.999 10.224C118.759 10.8982 119.139 11.7625 119.139 12.8168C119.139 13.8833 118.734 14.7414 117.925 15.3911ZM115.222 11.5663H112.684V14.3982H115.222C115.614 14.3982 115.939 14.2633 116.197 13.9936C116.466 13.7239 116.601 13.3868 116.601 12.9822C116.601 12.5777 116.472 12.2406 116.215 11.9709C115.957 11.7012 115.627 11.5663 115.222 11.5663ZM115.608 19.694C116.037 19.694 116.393 19.553 116.675 19.2711C116.957 18.9769 117.098 18.6091 117.098 18.1678C117.098 17.7387 116.957 17.3832 116.675 17.1013C116.393 16.807 116.037 16.6599 115.608 16.6599H112.684V19.694H115.608Z" fill="black"/>
</svg>
