<svg width="197" height="50" viewBox="0 0 197 50" fill="none" xmlns="http://www.w3.org/2000/svg">
<path fill-rule="evenodd" clip-rule="evenodd" d="M0 11.0872C13.3333 11.0872 33.0667 10.5464 49.3333 0.000488281L52 3.51579C44.6129 8.46499 36.1166 11.4292 27.2856 13.1611C27.6547 13.9353 29.1486 17.0087 30.4318 18.7694C32.2096 17.6697 34.2985 17.0362 36.5333 17.0362C43.0135 17.0362 48.2667 22.3631 48.2667 28.9341C48.2667 35.5052 43.0135 40.8321 36.5333 40.8321C30.0532 40.8321 24.8 35.5052 24.8 28.9341C24.8 26.3431 25.6167 23.9456 27.0034 21.9918C25.9751 20.8929 24.9379 19.6284 24.8 18.929C24.2882 21.3509 22.3781 24.0495 20.9515 25.7248C21.4383 25.8847 21.9111 26.0759 22.3677 26.2962C22.2138 27.1518 22.1333 28.0334 22.1333 28.9341C22.1333 33.9412 24.6187 38.3597 28.4067 40.9903C26.8021 45.6229 22.4502 48.9443 17.3333 48.9443C10.8532 48.9443 5.6 43.6174 5.6 37.0463C5.6 30.8857 10.2175 25.8186 16.1346 25.2097C20.6748 20.7842 22.0745 16.4388 22.2466 14.0163C14.8125 15.0927 7.24795 15.4137 0 15.4137V11.0872ZM39.7611 22.5479C38.7863 21.8993 37.8036 21.6331 37.3333 21.6331V20.0107C38.1964 20.0107 39.4804 20.4205 40.6389 21.1915C41.8176 21.9758 42.973 23.2044 43.4385 24.935L41.8949 25.3619C41.5603 24.118 40.7158 23.1833 39.7611 22.5479ZM12.2095 31.6691C12.2737 31.5063 12.4635 31.2374 12.8312 30.9242C13.1854 30.6225 13.6537 30.3235 14.1916 30.081C15.2817 29.5897 16.5448 29.379 17.6368 29.7111L18.0966 28.1571C16.5218 27.6781 14.8516 28.0081 13.5418 28.5984C12.8797 28.8968 12.2813 29.2738 11.8021 29.6819C11.3365 30.0785 10.9263 30.5533 10.7239 31.0665L12.2095 31.6691Z" fill="#2895F0"/>
<path d="M80.333 36.3605C77.153 36.3605 74.523 35.3105 72.443 33.2105C70.363 31.1105 69.323 28.5405 69.323 25.5005C69.323 22.4605 70.363 19.8905 72.443 17.7905C74.523 15.6905 77.153 14.6405 80.333 14.6405C82.273 14.6405 84.053 15.1105 85.673 16.0505C87.293 16.9705 88.543 18.2205 89.423 19.8005L87.563 20.8805C86.903 19.6005 85.923 18.5805 84.623 17.8205C83.323 17.0605 81.893 16.6805 80.333 16.6805C77.713 16.6805 75.573 17.5305 73.913 19.2305C72.253 20.9305 71.423 23.0205 71.423 25.5005C71.423 27.9805 72.253 30.0705 73.913 31.7705C75.573 33.4705 77.713 34.3205 80.333 34.3205C81.893 34.3205 83.323 33.9405 84.623 33.1805C85.923 32.4205 86.903 31.4005 87.563 30.1205L89.423 31.1705C88.563 32.7505 87.313 34.0105 85.673 34.9505C84.053 35.8905 82.273 36.3605 80.333 36.3605ZM105.33 21.0005H107.31V36.0005H105.33V33.0605C103.95 35.2605 101.93 36.3605 99.2701 36.3605C97.1301 36.3605 95.3001 35.6005 93.7801 34.0805C92.2801 32.5605 91.5301 30.7005 91.5301 28.5005C91.5301 26.3005 92.2801 24.4405 93.7801 22.9205C95.3001 21.4005 97.1301 20.6405 99.2701 20.6405C101.93 20.6405 103.95 21.7405 105.33 23.9405V21.0005ZM95.2201 32.7305C96.3601 33.8705 97.7601 34.4405 99.4201 34.4405C101.08 34.4405 102.48 33.8705 103.62 32.7305C104.76 31.5705 105.33 30.1605 105.33 28.5005C105.33 26.8405 104.76 25.4405 103.62 24.3005C102.48 23.1405 101.08 22.5605 99.4201 22.5605C97.7601 22.5605 96.3601 23.1405 95.2201 24.3005C94.0801 25.4405 93.5101 26.8405 93.5101 28.5005C93.5101 30.1605 94.0801 31.5705 95.2201 32.7305ZM119.542 20.6405C121.682 20.6405 123.502 21.4005 125.002 22.9205C126.522 24.4405 127.282 26.3005 127.282 28.5005C127.282 30.7005 126.522 32.5605 125.002 34.0805C123.502 35.6005 121.682 36.3605 119.542 36.3605C116.882 36.3605 114.862 35.2605 113.482 33.0605V42.0005H111.502V21.0005H113.482V23.9405C114.862 21.7405 116.882 20.6405 119.542 20.6405ZM115.192 32.7305C116.332 33.8705 117.732 34.4405 119.392 34.4405C121.052 34.4405 122.452 33.8705 123.592 32.7305C124.732 31.5705 125.302 30.1605 125.302 28.5005C125.302 26.8405 124.732 25.4405 123.592 24.3005C122.452 23.1405 121.052 22.5605 119.392 22.5605C117.732 22.5605 116.332 23.1405 115.192 24.3005C114.052 25.4405 113.482 26.8405 113.482 28.5005C113.482 30.1605 114.052 31.5705 115.192 32.7305ZM132.585 17.4005C132.305 17.6805 131.965 17.8205 131.565 17.8205C131.165 17.8205 130.825 17.6805 130.545 17.4005C130.265 17.1205 130.125 16.7805 130.125 16.3805C130.125 15.9805 130.265 15.6405 130.545 15.3605C130.825 15.0805 131.165 14.9405 131.565 14.9405C131.965 14.9405 132.305 15.0805 132.585 15.3605C132.865 15.6405 133.005 15.9805 133.005 16.3805C133.005 16.7805 132.865 17.1205 132.585 17.4005ZM130.575 36.0005V21.0005H132.555V36.0005H130.575ZM144.706 22.9205H140.386V32.0105C140.386 32.8305 140.546 33.4205 140.866 33.7805C141.186 34.1205 141.666 34.3005 142.306 34.3205C142.946 34.3205 143.746 34.3005 144.706 34.2605V36.0005C142.606 36.3205 141.026 36.1705 139.966 35.5505C138.926 34.9305 138.406 33.7505 138.406 32.0105V22.9205H135.256V21.0005H138.406V17.4005L140.386 16.8005V21.0005H144.706V22.9205ZM159.998 21.0005H161.978V36.0005H159.998V33.0605C158.618 35.2605 156.598 36.3605 153.938 36.3605C151.798 36.3605 149.968 35.6005 148.448 34.0805C146.948 32.5605 146.198 30.7005 146.198 28.5005C146.198 26.3005 146.948 24.4405 148.448 22.9205C149.968 21.4005 151.798 20.6405 153.938 20.6405C156.598 20.6405 158.618 21.7405 159.998 23.9405V21.0005ZM149.888 32.7305C151.028 33.8705 152.428 34.4405 154.088 34.4405C155.748 34.4405 157.148 33.8705 158.288 32.7305C159.428 31.5705 159.998 30.1605 159.998 28.5005C159.998 26.8405 159.428 25.4405 158.288 24.3005C157.148 23.1405 155.748 22.5605 154.088 22.5605C152.428 22.5605 151.028 23.1405 149.888 24.3005C148.748 25.4405 148.178 26.8405 148.178 28.5005C148.178 30.1605 148.748 31.5705 149.888 32.7305ZM166.17 36.0005V14.1005H168.15V36.0005H166.17ZM192.392 25.1105C194.232 26.1705 195.152 27.7705 195.152 29.9105C195.152 31.6905 194.522 33.1505 193.262 34.2905C192.002 35.4305 190.452 36.0005 188.612 36.0005H179.702V15.0005H187.982C189.782 15.0005 191.292 15.5605 192.512 16.6805C193.752 17.7805 194.372 19.1905 194.372 20.9105C194.372 22.6505 193.712 24.0505 192.392 25.1105ZM187.982 18.8705H183.842V23.4905H187.982C188.622 23.4905 189.152 23.2705 189.572 22.8305C190.012 22.3905 190.232 21.8405 190.232 21.1805C190.232 20.5205 190.022 19.9705 189.602 19.5305C189.182 19.0905 188.642 18.8705 187.982 18.8705ZM188.612 32.1305C189.312 32.1305 189.892 31.9005 190.352 31.4405C190.812 30.9605 191.042 30.3605 191.042 29.6405C191.042 28.9405 190.812 28.3605 190.352 27.9005C189.892 27.4205 189.312 27.1805 188.612 27.1805H183.842V32.1305H188.612Z" fill="white"/>
</svg>
