<svg width="179" height="45" viewBox="0 0 179 45" fill="none" xmlns="http://www.w3.org/2000/svg">
<path fill-rule="evenodd" clip-rule="evenodd" d="M0 10.1934C12.259 10.1934 30.4022 9.69613 45.3581 0L47.8099 3.23204C41.0181 7.78245 33.2064 10.5078 25.087 12.1002C25.4263 12.812 26.7999 15.6377 27.9797 17.2565C29.6142 16.2455 31.5348 15.663 33.5895 15.663C39.5475 15.663 44.3774 20.5606 44.3774 26.6022C44.3774 32.6438 39.5475 37.5414 33.5895 37.5414C27.6316 37.5414 22.8017 32.6438 22.8017 26.6022C22.8017 24.22 23.5526 22.0157 24.8275 20.2193C23.8821 19.2089 22.9285 18.0463 22.8017 17.4033C22.3311 19.63 20.5749 22.1112 19.2632 23.6515C19.7108 23.7985 20.1456 23.9743 20.5654 24.1768C20.4238 24.9635 20.3499 25.7741 20.3499 26.6022C20.3499 31.2059 22.635 35.2683 26.1177 37.6869C24.6424 41.9463 20.6412 45 15.9366 45C9.97866 45 5.14876 40.1023 5.14876 34.0608C5.14876 28.3965 9.39422 23.7378 14.8345 23.1779C19.0089 19.109 20.2958 15.1138 20.454 12.8865C13.6189 13.8761 6.66392 14.1713 0 14.1713V10.1934ZM36.5572 20.7306C35.661 20.1342 34.7575 19.8895 34.3251 19.8895V18.3978C35.1186 18.3978 36.2991 18.7746 37.3643 19.4835C38.448 20.2046 39.5103 21.3342 39.9383 22.9253L38.5191 23.3178C38.2115 22.1741 37.435 21.3147 36.5572 20.7306ZM11.2256 29.1168C11.2847 28.9671 11.4592 28.7199 11.7973 28.432C12.123 28.1546 12.5535 27.8796 13.0481 27.6567C14.0504 27.205 15.2117 27.0112 16.2157 27.3166L16.6384 25.8878C15.1905 25.4474 13.6549 25.7508 12.4506 26.2936C11.8419 26.5679 11.2917 26.9145 10.8511 27.2897C10.423 27.6544 10.0459 28.091 9.85978 28.5628L11.2256 29.1168Z" fill="#2895F0"/>
<path d="M72.9334 33.4292C70.0096 33.4292 67.5915 32.4638 65.6791 30.533C63.7667 28.6023 62.8105 26.2393 62.8105 23.4443C62.8105 20.6493 63.7667 18.2863 65.6791 16.3556C67.5915 14.4248 70.0096 13.4594 72.9334 13.4594C74.7171 13.4594 76.3536 13.8915 77.8431 14.7558C79.3326 15.6016 80.4818 16.7509 81.2909 18.2036L79.5808 19.1966C78.974 18.0197 78.0729 17.0819 76.8777 16.3831C75.6825 15.6844 74.3677 15.335 72.9334 15.335C70.5245 15.335 68.5569 16.1165 67.0307 17.6795C65.5045 19.2425 64.7413 21.1641 64.7413 23.4443C64.7413 25.7245 65.5045 27.6461 67.0307 29.2091C68.5569 30.7721 70.5245 31.5536 72.9334 31.5536C74.3677 31.5536 75.6825 31.2042 76.8777 30.5055C78.0729 29.8067 78.974 28.8689 79.5808 27.692L81.2909 28.6574C80.5002 30.1101 79.3509 31.2686 77.8431 32.1328C76.3536 32.9971 74.7171 33.4292 72.9334 33.4292Z" fill="black"/>
<path d="M95.9162 19.3069H97.7366V33.0982H95.9162V30.3951C94.6474 32.4179 92.7902 33.4292 90.3445 33.4292C88.3769 33.4292 86.6944 32.7305 85.2969 31.3329C83.9177 29.9354 83.2282 28.2253 83.2282 26.2026C83.2282 24.1798 83.9177 22.4697 85.2969 21.0722C86.6944 19.6747 88.3769 18.9759 90.3445 18.9759C92.7902 18.9759 94.6474 19.9873 95.9162 22.01V19.3069ZM86.6208 30.0917C87.669 31.1399 88.9562 31.6639 90.4824 31.6639C92.0087 31.6639 93.2958 31.1399 94.344 30.0917C95.3921 29.0252 95.9162 27.7288 95.9162 26.2026C95.9162 24.6763 95.3921 23.3891 94.344 22.341C93.2958 21.2745 92.0087 20.7412 90.4824 20.7412C88.9562 20.7412 87.669 21.2745 86.6208 22.341C85.5727 23.3891 85.0486 24.6763 85.0486 26.2026C85.0486 27.7288 85.5727 29.0252 86.6208 30.0917Z" fill="black"/>
<path d="M108.983 18.9759C110.951 18.9759 112.624 19.6747 114.003 21.0722C115.401 22.4697 116.1 24.1798 116.1 26.2026C116.1 28.2253 115.401 29.9354 114.003 31.3329C112.624 32.7305 110.951 33.4292 108.983 33.4292C106.538 33.4292 104.68 32.4179 103.412 30.3951V38.6148H101.591V19.3069H103.412V22.01C104.68 19.9873 106.538 18.9759 108.983 18.9759ZM104.984 30.0917C106.032 31.1399 107.319 31.6639 108.845 31.6639C110.372 31.6639 111.659 31.1399 112.707 30.0917C113.755 29.0252 114.279 27.7288 114.279 26.2026C114.279 24.6763 113.755 23.3891 112.707 22.341C111.659 21.2745 110.372 20.7412 108.845 20.7412C107.319 20.7412 106.032 21.2745 104.984 22.341C103.936 23.3891 103.412 24.6763 103.412 26.2026C103.412 27.7288 103.936 29.0252 104.984 30.0917Z" fill="black"/>
<path d="M120.975 15.997C120.717 16.2544 120.405 16.3831 120.037 16.3831C119.669 16.3831 119.356 16.2544 119.099 15.997C118.842 15.7395 118.713 15.4269 118.713 15.0592C118.713 14.6914 118.842 14.3788 119.099 14.1214C119.356 13.8639 119.669 13.7352 120.037 13.7352C120.405 13.7352 120.717 13.8639 120.975 14.1214C121.232 14.3788 121.361 14.6914 121.361 15.0592C121.361 15.4269 121.232 15.7395 120.975 15.997ZM119.127 33.0982V19.3069H120.947V33.0982H119.127Z" fill="black"/>
<path d="M132.12 21.0722H128.148V29.4297C128.148 30.1837 128.295 30.7261 128.589 31.0571C128.883 31.3697 129.324 31.5352 129.913 31.5536C130.501 31.5536 131.237 31.5352 132.12 31.4984V33.0982C130.189 33.3924 128.736 33.2545 127.761 32.6845C126.805 32.1144 126.327 31.0295 126.327 29.4297V21.0722H123.431V19.3069H126.327V15.997L128.148 15.4453V19.3069H132.12V21.0722Z" fill="black"/>
<path d="M146.179 19.3069H148V33.0982H146.179V30.3951C144.91 32.4179 143.053 33.4292 140.607 33.4292C138.64 33.4292 136.957 32.7305 135.56 31.3329C134.181 29.9354 133.491 28.2253 133.491 26.2026C133.491 24.1798 134.181 22.4697 135.56 21.0722C136.957 19.6747 138.64 18.9759 140.607 18.9759C143.053 18.9759 144.91 19.9873 146.179 22.01V19.3069ZM136.884 30.0917C137.932 31.1399 139.219 31.6639 140.745 31.6639C142.272 31.6639 143.559 31.1399 144.607 30.0917C145.655 29.0252 146.179 27.7288 146.179 26.2026C146.179 24.6763 145.655 23.3891 144.607 22.341C143.559 21.2745 142.272 20.7412 140.745 20.7412C139.219 20.7412 137.932 21.2745 136.884 22.341C135.836 23.3891 135.312 24.6763 135.312 26.2026C135.312 27.7288 135.836 29.0252 136.884 30.0917Z" fill="black"/>
<path d="M151.854 33.0982V12.9629H153.674V33.0982H151.854Z" fill="black"/>
<path d="M175.963 23.0857C177.655 24.0603 178.5 25.5314 178.5 27.499C178.5 29.1355 177.921 30.4779 176.763 31.526C175.604 32.5742 174.179 33.0982 172.487 33.0982H164.295V13.7904H171.908C173.563 13.7904 174.951 14.3052 176.073 15.335C177.213 16.3464 177.783 17.6427 177.783 19.2242C177.783 20.8239 177.176 22.1111 175.963 23.0857ZM171.908 17.3485H168.102V21.5963H171.908C172.497 21.5963 172.984 21.394 173.37 20.9894C173.775 20.5849 173.977 20.0792 173.977 19.4724C173.977 18.8656 173.784 18.3599 173.398 17.9554C173.011 17.5508 172.515 17.3485 171.908 17.3485ZM172.487 29.5401C173.131 29.5401 173.664 29.3286 174.087 28.9057C174.51 28.4643 174.722 27.9127 174.722 27.2507C174.722 26.6071 174.51 26.0738 174.087 25.6509C173.664 25.2096 173.131 24.9889 172.487 24.9889H168.102V29.5401H172.487Z" fill="black"/>
</svg>
