<svg width="167" height="88" viewBox="0 0 167 88" fill="none" xmlns="http://www.w3.org/2000/svg">
<path d="M0 60.961H11.6968V61.9158L8.55382 62.2739L16.4313 82.0869L23.9905 62.9502L20.4894 61.9158V60.961H28.8045V61.9158L25.7808 62.99L15.9141 87.7762H13.527L3.06346 62.2739L0 61.9158V60.961Z" fill="#E8F7EC"/>
<path d="M39.695 87.5375H29.4305V86.6224L32.0165 86.3837V69.4352L28.595 69.2363V68.4008L37.109 67.8836V86.3837L39.695 86.6224V87.5375ZM37.3875 61.1997C37.3875 61.9954 37.0957 62.685 36.5122 63.2685C35.9552 63.852 35.2524 64.1438 34.4036 64.1438C33.5549 64.1438 32.8387 63.8653 32.2552 63.3083C31.6982 62.7248 31.4197 62.0219 31.4197 61.1997C31.4197 60.3509 31.7115 59.6348 32.295 59.0513C32.8785 58.4413 33.5814 58.1362 34.4036 58.1362C35.2258 58.1362 35.9287 58.4413 36.5122 59.0513C37.0957 59.6613 37.3875 60.3775 37.3875 61.1997Z" fill="#E8F7EC"/>
<path d="M55.2349 73.6525C55.2349 70.4166 54.1077 68.7987 51.8532 68.7987C49.4926 68.7987 48.0603 70.8675 47.5564 75.0052H55.1553C55.2084 74.4747 55.2349 74.0238 55.2349 73.6525ZM51.4951 87.9751C48.6571 87.9751 46.3495 87.0468 44.5725 85.1902C42.8219 83.3335 41.9466 80.8801 41.9466 77.8299C41.9466 74.7797 42.8617 72.3263 44.6918 70.4696C46.5485 68.613 48.8958 67.6847 51.7338 67.6847C54.5718 67.6847 56.6937 68.2947 58.0994 69.5148C59.5052 70.7084 60.208 72.3793 60.208 74.5277C60.208 75.1378 60.155 75.7743 60.0489 76.4374H47.437V77.8299C47.437 80.8005 47.8083 83.055 48.551 84.5934C49.2936 86.1052 50.4076 86.8611 51.8929 86.8611C53.4048 86.8611 54.7707 86.5561 55.9908 85.9461C57.2374 85.3095 58.2055 84.421 58.8951 83.2805C59.4787 83.4661 59.7704 83.7446 59.7704 84.116C59.7704 84.779 59.1471 85.5482 57.9005 86.4235C57.2905 86.8479 56.4152 87.2192 55.2747 87.5375C54.1607 87.8292 52.9008 87.9751 51.4951 87.9751Z" fill="#E8F7EC"/>
<path d="M86.8334 68.1223H93.5173V69.1567L91.0904 69.9126L84.3269 87.5375H82.7355L77.8817 76.0396L73.3462 87.5375H70.7601L63.0816 69.3557L61.4106 69.1567V68.1223H70.4816V69.1567L67.8558 69.475L73.5053 83.2805L77.0064 74.0105L75.0569 69.3557L73.4257 69.1567V68.1223H82.4172V69.1567L79.7914 69.475L84.9237 82.1267L89.4194 69.9126L86.8334 69.1567V68.1223Z" fill="#E8F7EC"/>
<path d="M110.851 86.9805C111.779 86.9805 112.548 86.6887 113.158 86.1052C113.768 85.4952 114.073 84.5138 114.073 83.1611C114.073 82.0737 113.622 81.2514 112.72 80.6944C112.031 80.2701 111.142 79.8589 110.055 79.4611C108.994 79.0367 108.172 78.6786 107.588 78.3869C107.031 78.0951 106.408 77.7105 105.718 77.2331C104.366 76.2783 103.689 74.9786 103.689 73.3342C103.689 71.6897 104.366 70.337 105.718 69.2761C107.097 68.2151 109.1 67.6847 111.726 67.6847C113.37 67.6847 114.763 68.0427 115.903 68.7589C117.044 69.4485 117.614 70.3238 117.614 71.3847C117.614 72.4456 117.163 73.2148 116.261 73.6922C115.837 73.9044 115.413 74.0105 114.988 74.0105L113.556 73.5729C113.715 72.7507 113.795 72.008 113.795 71.3449C113.795 70.6553 113.582 70.0453 113.158 69.5148C112.734 68.9578 112.097 68.6793 111.248 68.6793C109.18 68.6793 108.145 69.9259 108.145 72.4191C108.145 73.5596 108.583 74.4084 109.458 74.9654C110.121 75.4163 110.97 75.8274 112.004 76.1987C113.039 76.5435 113.848 76.8485 114.431 77.1138C115.041 77.379 115.691 77.7503 116.381 78.2278C117.76 79.1295 118.45 80.469 118.45 82.2461C118.45 83.9966 117.72 85.3891 116.261 86.4235C114.803 87.4579 112.88 87.9751 110.492 87.9751C107.84 87.9751 105.877 87.5375 104.604 86.6622C103.862 86.1317 103.49 85.4819 103.49 84.7127C103.49 83.9436 103.742 83.3203 104.246 82.8428C104.777 82.3654 105.506 82.1134 106.434 82.0869C106.62 85.3493 108.092 86.9805 110.851 86.9805Z" fill="#E8F7EC"/>
<path d="M131.465 87.5375H121.201V86.6224L123.787 86.3837V69.4352L120.365 69.2363V68.4008L128.879 67.8836V86.3837L131.465 86.6224V87.5375ZM129.158 61.1997C129.158 61.9954 128.866 62.685 128.282 63.2685C127.725 63.852 127.023 64.1438 126.174 64.1438C125.325 64.1438 124.609 63.8653 124.025 63.3083C123.468 62.7248 123.19 62.0219 123.19 61.1997C123.19 60.3509 123.482 59.6348 124.065 59.0513C124.649 58.4413 125.352 58.1362 126.174 58.1362C126.996 58.1362 127.699 58.4413 128.282 59.0513C128.866 59.6613 129.158 60.3775 129.158 61.1997Z" fill="#E8F7EC"/>
<path d="M140.679 87.9751C138.133 87.9751 136.515 87.0866 135.825 85.3095C135.534 84.5403 135.388 83.5722 135.388 82.4052C135.388 78.0023 135.454 73.5861 135.587 69.1567H132.881V68.1223H135.626L135.666 62.2739H140.759L140.639 68.1223H146.209V69.1567H140.639L140.56 72.3793C140.48 76.6761 140.44 80.6149 140.44 84.1955C140.44 85.2299 140.547 85.9328 140.759 86.3041C140.997 86.6755 141.409 86.8611 141.992 86.8611C142.602 86.8611 143.265 86.45 143.981 85.6278C144.724 84.779 145.254 83.7712 145.573 82.6041C146.103 82.6041 146.368 82.7898 146.368 83.1611C146.368 83.2407 146.355 83.3335 146.329 83.4396C145.904 84.8188 145.175 85.9196 144.141 86.7418C143.133 87.564 141.979 87.9751 140.679 87.9751Z" fill="#E8F7EC"/>
<path d="M161.769 73.6525C161.769 70.4166 160.642 68.7987 158.387 68.7987C156.027 68.7987 154.594 70.8675 154.091 75.0052H161.689C161.743 74.4747 161.769 74.0238 161.769 73.6525ZM158.029 87.9751C155.191 87.9751 152.884 87.0468 151.107 85.1902C149.356 83.3335 148.481 80.8801 148.481 77.8299C148.481 74.7797 149.396 72.3263 151.226 70.4696C153.083 68.613 155.43 67.6847 158.268 67.6847C161.106 67.6847 163.228 68.2947 164.634 69.5148C166.039 70.7084 166.742 72.3793 166.742 74.5277C166.742 75.1378 166.689 75.7743 166.583 76.4374H153.971V77.8299C153.971 80.8005 154.342 83.055 155.085 84.5934C155.828 86.1052 156.942 86.8611 158.427 86.8611C159.939 86.8611 161.305 86.5561 162.525 85.9461C163.772 85.3095 164.74 84.421 165.429 83.2805C166.013 83.4661 166.305 83.7446 166.305 84.116C166.305 84.779 165.681 85.5482 164.435 86.4235C163.825 86.8479 162.949 87.2192 161.809 87.5375C160.695 87.8292 159.435 87.9751 158.029 87.9751Z" fill="#E8F7EC"/>
<path d="M111.605 13.5952L83.7559 41.4448" stroke="#E8F6EC" stroke-width="2" stroke-linecap="round" stroke-linejoin="round"/>
<path d="M112.212 34.9673L112.212 12.9889L90.2335 12.9889" stroke="#E8F6EC" stroke-width="2" stroke-linecap="round" stroke-linejoin="round"/>
</svg>
