<svg width="18" height="18" viewBox="0 0 18 18" fill="none" xmlns="http://www.w3.org/2000/svg">
<path fill-rule="evenodd" clip-rule="evenodd" d="M11.1211 9.00019L17.5605 2.56082C18.147 1.97433 18.147 1.02635 17.5605 0.439866C16.974 -0.146622 16.026 -0.146622 15.4396 0.439866L9.00019 6.87923L2.56082 0.439866C1.97433 -0.146622 1.02635 -0.146622 0.439866 0.439866C-0.146622 1.02635 -0.146622 1.97433 0.439866 2.56082L6.87923 9.00019L0.439866 15.4396C-0.146622 16.026 -0.146622 16.974 0.439866 17.5605C0.73236 17.853 1.11635 18 1.50034 18C1.88434 18 2.26833 17.853 2.56082 17.5605L9.00019 11.1211L15.4396 17.5605C15.732 17.853 16.116 18 16.5 18C16.884 18 17.268 17.853 17.5605 17.5605C18.147 16.974 18.147 16.026 17.5605 15.4396L11.1211 9.00019Z" fill="#EB5757"/>
</svg>
